<?xml version="1.0" encoding="UTF-8" standalone="no"?>
<!DOCTYPE svg PUBLIC "-//W3C//DTD SVG 1.1//EN"
 "http://www.w3.org/Graphics/SVG/1.1/DTD/svg11.dtd">
<!-- Generated by graphviz version 2.43.0 (0)
 -->
<!-- Title: brezel::utils::Error Pages: 1 -->
<svg width="431pt" height="280pt"
 viewBox="0.00 0.00 431.00 280.00" xmlns="http://www.w3.org/2000/svg" xmlns:xlink="http://www.w3.org/1999/xlink">
<g id="graph0" class="graph" transform="scale(1 1) rotate(0) translate(4 276)">
<title>brezel::utils::Error</title>
<polygon fill="white" stroke="transparent" points="-4,4 -4,-276 427,-276 427,4 -4,4"/>
<!-- Node1 -->
<g id="node1" class="node">
<title>Node1</title>
<g id="a_node1"><a xlink:title="Bae class for all Brezel errors.">
<polygon fill="#bfbfbf" stroke="black" points="122,-126.5 122,-145.5 225,-145.5 225,-126.5 122,-126.5"/>
<text text-anchor="middle" x="173.5" y="-133.5" font-family="Helvetica,sans-Serif" font-size="10.00">brezel::utils::Error</text>
</a>
</g>
</g>
<!-- Node3 -->
<g id="node3" class="node">
<title>Node3</title>
<g id="a_node3"><a xlink:href="classbrezel_1_1utils_1_1_device_error.html" target="_top" xlink:title="Device error.">
<polygon fill="white" stroke="black" points="273.5,-252.5 273.5,-271.5 410.5,-271.5 410.5,-252.5 273.5,-252.5"/>
<text text-anchor="middle" x="342" y="-259.5" font-family="Helvetica,sans-Serif" font-size="10.00">brezel::utils::DeviceError</text>
</a>
</g>
</g>
<!-- Node1&#45;&gt;Node3 -->
<g id="edge2" class="edge">
<title>Node1&#45;&gt;Node3</title>
<path fill="none" stroke="midnightblue" d="M184.4,-154.71C198.23,-178.95 225.65,-220.73 261,-243 267.16,-246.88 274.04,-249.97 281.11,-252.43"/>
<polygon fill="midnightblue" stroke="midnightblue" points="187.37,-152.85 179.47,-145.78 181.24,-156.23 187.37,-152.85"/>
</g>
<!-- Node4 -->
<g id="node4" class="node">
<title>Node4</title>
<g id="a_node4"><a xlink:href="classbrezel_1_1utils_1_1_index_error.html" target="_top" xlink:title="Index error (for out&#45;of&#45;bounds access)">
<polygon fill="white" stroke="black" points="277,-214.5 277,-233.5 407,-233.5 407,-214.5 277,-214.5"/>
<text text-anchor="middle" x="342" y="-221.5" font-family="Helvetica,sans-Serif" font-size="10.00">brezel::utils::IndexError</text>
</a>
</g>
</g>
<!-- Node1&#45;&gt;Node4 -->
<g id="edge3" class="edge">
<title>Node1&#45;&gt;Node4</title>
<path fill="none" stroke="midnightblue" d="M190.79,-152.71C207.12,-168.5 233.69,-191.7 261,-205 268.96,-208.88 277.75,-211.99 286.51,-214.48"/>
<polygon fill="midnightblue" stroke="midnightblue" points="193.21,-150.18 183.64,-145.63 188.28,-155.15 193.21,-150.18"/>
</g>
<!-- Node5 -->
<g id="node5" class="node">
<title>Node5</title>
<g id="a_node5"><a xlink:href="classbrezel_1_1utils_1_1_invalid_argument_error.html" target="_top" xlink:title="Invalid argument error.">
<polygon fill="white" stroke="black" points="261.5,-165 261.5,-195 422.5,-195 422.5,-165 261.5,-165"/>
<text text-anchor="start" x="269.5" y="-183" font-family="Helvetica,sans-Serif" font-size="10.00">brezel::utils::InvalidArgument</text>
<text text-anchor="middle" x="342" y="-172" font-family="Helvetica,sans-Serif" font-size="10.00">Error</text>
</a>
</g>
</g>
<!-- Node1&#45;&gt;Node5 -->
<g id="edge4" class="edge">
<title>Node1&#45;&gt;Node5</title>
<path fill="none" stroke="midnightblue" d="M220.55,-148.17C240.18,-153.36 263.29,-159.46 283.99,-164.93"/>
<polygon fill="midnightblue" stroke="midnightblue" points="221.19,-144.72 210.63,-145.55 219.4,-151.49 221.19,-144.72"/>
</g>
<!-- Node6 -->
<g id="node6" class="node">
<title>Node6</title>
<g id="a_node6"><a xlink:href="classbrezel_1_1utils_1_1_memory_error.html" target="_top" xlink:title="Memory error.">
<polygon fill="white" stroke="black" points="270.5,-126.5 270.5,-145.5 413.5,-145.5 413.5,-126.5 270.5,-126.5"/>
<text text-anchor="middle" x="342" y="-133.5" font-family="Helvetica,sans-Serif" font-size="10.00">brezel::utils::MemoryError</text>
</a>
</g>
</g>
<!-- Node1&#45;&gt;Node6 -->
<g id="edge5" class="edge">
<title>Node1&#45;&gt;Node6</title>
<path fill="none" stroke="midnightblue" d="M235.53,-136C246.81,-136 258.68,-136 270.22,-136"/>
<polygon fill="midnightblue" stroke="midnightblue" points="235.36,-132.5 225.36,-136 235.36,-139.5 235.36,-132.5"/>
</g>
<!-- Node7 -->
<g id="node7" class="node">
<title>Node7</title>
<g id="a_node7"><a xlink:href="classbrezel_1_1utils_1_1_not_implemented_error.html" target="_top" xlink:title="Not implemented error.">
<polygon fill="white" stroke="black" points="261,-77 261,-107 423,-107 423,-77 261,-77"/>
<text text-anchor="start" x="269" y="-95" font-family="Helvetica,sans-Serif" font-size="10.00">brezel::utils::NotImplemented</text>
<text text-anchor="middle" x="342" y="-84" font-family="Helvetica,sans-Serif" font-size="10.00">Error</text>
</a>
</g>
</g>
<!-- Node1&#45;&gt;Node7 -->
<g id="edge6" class="edge">
<title>Node1&#45;&gt;Node7</title>
<path fill="none" stroke="midnightblue" d="M220.55,-123.83C240.18,-118.64 263.29,-112.54 283.99,-107.07"/>
<polygon fill="midnightblue" stroke="midnightblue" points="219.4,-120.51 210.63,-126.45 221.19,-127.28 219.4,-120.51"/>
</g>
<!-- Node8 -->
<g id="node8" class="node">
<title>Node8</title>
<g id="a_node8"><a xlink:href="classbrezel_1_1utils_1_1_runtime_error.html" target="_top" xlink:title="Runtime error.">
<polygon fill="white" stroke="black" points="270,-38.5 270,-57.5 414,-57.5 414,-38.5 270,-38.5"/>
<text text-anchor="middle" x="342" y="-45.5" font-family="Helvetica,sans-Serif" font-size="10.00">brezel::utils::RuntimeError</text>
</a>
</g>
</g>
<!-- Node1&#45;&gt;Node8 -->
<g id="edge7" class="edge">
<title>Node1&#45;&gt;Node8</title>
<path fill="none" stroke="midnightblue" d="M190.79,-119.29C207.12,-103.5 233.69,-80.3 261,-67 268.96,-63.12 277.75,-60.01 286.51,-57.52"/>
<polygon fill="midnightblue" stroke="midnightblue" points="188.28,-116.85 183.64,-126.37 193.21,-121.82 188.28,-116.85"/>
</g>
<!-- Node9 -->
<g id="node9" class="node">
<title>Node9</title>
<g id="a_node9"><a xlink:href="classbrezel_1_1utils_1_1_shape_error.html" target="_top" xlink:title="Shape error.">
<polygon fill="white" stroke="black" points="275.5,-0.5 275.5,-19.5 408.5,-19.5 408.5,-0.5 275.5,-0.5"/>
<text text-anchor="middle" x="342" y="-7.5" font-family="Helvetica,sans-Serif" font-size="10.00">brezel::utils::ShapeError</text>
</a>
</g>
</g>
<!-- Node1&#45;&gt;Node9 -->
<g id="edge8" class="edge">
<title>Node1&#45;&gt;Node9</title>
<path fill="none" stroke="midnightblue" d="M184.4,-117.29C198.23,-93.05 225.65,-51.27 261,-29 267.16,-25.12 274.04,-22.03 281.11,-19.57"/>
<polygon fill="midnightblue" stroke="midnightblue" points="181.24,-115.77 179.47,-126.22 187.37,-119.15 181.24,-115.77"/>
</g>
<!-- Node2 -->
<g id="node2" class="node">
<title>Node2</title>
<g id="a_node2"><a xlink:title=" ">
<polygon fill="white" stroke="#bfbfbf" points="0,-126.5 0,-145.5 86,-145.5 86,-126.5 0,-126.5"/>
<text text-anchor="middle" x="43" y="-133.5" font-family="Helvetica,sans-Serif" font-size="10.00">std::exception</text>
</a>
</g>
</g>
<!-- Node2&#45;&gt;Node1 -->
<g id="edge1" class="edge">
<title>Node2&#45;&gt;Node1</title>
<path fill="none" stroke="midnightblue" d="M96.2,-136C104.66,-136 113.4,-136 121.82,-136"/>
<polygon fill="midnightblue" stroke="midnightblue" points="96.08,-132.5 86.08,-136 96.08,-139.5 96.08,-132.5"/>
</g>
</g>
</svg>
