<?xml version="1.0" encoding="UTF-8" standalone="no"?>
<!DOCTYPE svg PUBLIC "-//W3C//DTD SVG 1.1//EN"
 "http://www.w3.org/Graphics/SVG/1.1/DTD/svg11.dtd">
<!-- Generated by graphviz version 2.43.0 (0)
 -->
<!-- Title: brezel::utils::NotImplementedError Pages: 1 -->
<svg width="219pt" height="231pt"
 viewBox="0.00 0.00 219.00 231.00" xmlns="http://www.w3.org/2000/svg" xmlns:xlink="http://www.w3.org/1999/xlink">
<g id="graph0" class="graph" transform="scale(1 1) rotate(0) translate(4 227)">
<title>brezel::utils::NotImplementedError</title>
<polygon fill="white" stroke="transparent" points="-4,4 -4,-227 215,-227 215,4 -4,4"/>
<!-- Node1 -->
<g id="node1" class="node">
<title>Node1</title>
<g id="a_node1"><a xlink:title="Not implemented error.">
<polygon fill="#bfbfbf" stroke="black" points="0,-0.5 0,-30.5 162,-30.5 162,-0.5 0,-0.5"/>
<text text-anchor="start" x="8" y="-18.5" font-family="Helvetica,sans-Serif" font-size="10.00">brezel::utils::NotImplemented</text>
<text text-anchor="middle" x="81" y="-7.5" font-family="Helvetica,sans-Serif" font-size="10.00">Error</text>
</a>
</g>
</g>
<!-- Node2 -->
<g id="node2" class="node">
<title>Node2</title>
<g id="a_node2"><a xlink:href="classbrezel_1_1utils_1_1_error.html" target="_top" xlink:title="Bae class for all Brezel errors.">
<polygon fill="white" stroke="black" points="29.5,-68.5 29.5,-87.5 132.5,-87.5 132.5,-68.5 29.5,-68.5"/>
<text text-anchor="middle" x="81" y="-75.5" font-family="Helvetica,sans-Serif" font-size="10.00">brezel::utils::Error</text>
</a>
</g>
</g>
<!-- Node2&#45;&gt;Node1 -->
<g id="edge1" class="edge">
<title>Node2&#45;&gt;Node1</title>
<path fill="none" stroke="midnightblue" d="M81,-58.22C81,-49.36 81,-38.96 81,-30.76"/>
<polygon fill="midnightblue" stroke="midnightblue" points="77.5,-58.33 81,-68.33 84.5,-58.33 77.5,-58.33"/>
</g>
<!-- Node3 -->
<g id="node3" class="node">
<title>Node3</title>
<g id="a_node3"><a xlink:title=" ">
<polygon fill="white" stroke="#bfbfbf" points="22,-135.5 22,-154.5 108,-154.5 108,-135.5 22,-135.5"/>
<text text-anchor="middle" x="65" y="-142.5" font-family="Helvetica,sans-Serif" font-size="10.00">std::exception</text>
</a>
</g>
</g>
<!-- Node3&#45;&gt;Node2 -->
<g id="edge2" class="edge">
<title>Node3&#45;&gt;Node2</title>
<path fill="none" stroke="midnightblue" d="M69.57,-125.41C72.63,-112.99 76.52,-97.22 78.88,-87.63"/>
<polygon fill="midnightblue" stroke="midnightblue" points="66.15,-124.69 67.16,-135.23 72.95,-126.36 66.15,-124.69"/>
</g>
<!-- Node4 -->
<g id="node4" class="node">
<title>Node4</title>
<g id="a_node4"><a xlink:title=" ">
<polygon fill="white" stroke="#bfbfbf" points="126.5,-135.5 126.5,-154.5 191.5,-154.5 191.5,-135.5 126.5,-135.5"/>
<text text-anchor="middle" x="159" y="-142.5" font-family="Helvetica,sans-Serif" font-size="10.00">std::string</text>
</a>
</g>
</g>
<!-- Node4&#45;&gt;Node2 -->
<g id="edge3" class="edge">
<title>Node4&#45;&gt;Node2</title>
<path fill="none" stroke="#9a32cd" stroke-dasharray="5,2" d="M140.66,-128.71C125.29,-115.91 103.91,-98.09 91.35,-87.63"/>
<polygon fill="#9a32cd" stroke="#9a32cd" points="138.56,-131.52 148.48,-135.23 143.04,-126.14 138.56,-131.52"/>
<text text-anchor="middle" x="155.5" y="-109" font-family="Helvetica,sans-Serif" font-size="10.00"> m_message</text>
</g>
<!-- Node5 -->
<g id="node5" class="node">
<title>Node5</title>
<g id="a_node5"><a xlink:title=" ">
<polygon fill="white" stroke="#bfbfbf" points="107,-192.5 107,-222.5 211,-222.5 211,-192.5 107,-192.5"/>
<text text-anchor="start" x="115" y="-210.5" font-family="Helvetica,sans-Serif" font-size="10.00">std::basic_string&lt;</text>
<text text-anchor="middle" x="159" y="-199.5" font-family="Helvetica,sans-Serif" font-size="10.00"> Char &gt;</text>
</a>
</g>
</g>
<!-- Node5&#45;&gt;Node4 -->
<g id="edge4" class="edge">
<title>Node5&#45;&gt;Node4</title>
<path fill="none" stroke="midnightblue" d="M159,-182.35C159,-172.51 159,-161.78 159,-154.54"/>
<polygon fill="midnightblue" stroke="midnightblue" points="155.5,-182.47 159,-192.47 162.5,-182.47 155.5,-182.47"/>
</g>
</g>
</svg>
