<?xml version="1.0" encoding="UTF-8" standalone="no"?>
<!DOCTYPE svg PUBLIC "-//W3C//DTD SVG 1.1//EN"
 "http://www.w3.org/Graphics/SVG/1.1/DTD/svg11.dtd">
<!-- Generated by graphviz version 2.43.0 (0)
 -->
<!-- Title: brezel::utils::MemoryError Pages: 1 -->
<svg width="210pt" height="220pt"
 viewBox="0.00 0.00 209.50 220.00" xmlns="http://www.w3.org/2000/svg" xmlns:xlink="http://www.w3.org/1999/xlink">
<g id="graph0" class="graph" transform="scale(1 1) rotate(0) translate(4 216)">
<title>brezel::utils::MemoryError</title>
<polygon fill="white" stroke="transparent" points="-4,4 -4,-216 205.5,-216 205.5,4 -4,4"/>
<!-- Node1 -->
<g id="node1" class="node">
<title>Node1</title>
<g id="a_node1"><a xlink:title="Memory error.">
<polygon fill="#bfbfbf" stroke="black" points="0,-0.5 0,-19.5 143,-19.5 143,-0.5 0,-0.5"/>
<text text-anchor="middle" x="71.5" y="-7.5" font-family="Helvetica,sans-Serif" font-size="10.00">brezel::utils::MemoryError</text>
</a>
</g>
</g>
<!-- Node2 -->
<g id="node2" class="node">
<title>Node2</title>
<g id="a_node2"><a xlink:href="classbrezel_1_1utils_1_1_error.html" target="_top" xlink:title="Bae class for all Brezel errors.">
<polygon fill="white" stroke="black" points="20,-57.5 20,-76.5 123,-76.5 123,-57.5 20,-57.5"/>
<text text-anchor="middle" x="71.5" y="-64.5" font-family="Helvetica,sans-Serif" font-size="10.00">brezel::utils::Error</text>
</a>
</g>
</g>
<!-- Node2&#45;&gt;Node1 -->
<g id="edge1" class="edge">
<title>Node2&#45;&gt;Node1</title>
<path fill="none" stroke="midnightblue" d="M71.5,-47.12C71.5,-37.82 71.5,-27.06 71.5,-19.71"/>
<polygon fill="midnightblue" stroke="midnightblue" points="68,-47.41 71.5,-57.41 75,-47.41 68,-47.41"/>
</g>
<!-- Node3 -->
<g id="node3" class="node">
<title>Node3</title>
<g id="a_node3"><a xlink:title=" ">
<polygon fill="white" stroke="#bfbfbf" points="12.5,-124.5 12.5,-143.5 98.5,-143.5 98.5,-124.5 12.5,-124.5"/>
<text text-anchor="middle" x="55.5" y="-131.5" font-family="Helvetica,sans-Serif" font-size="10.00">std::exception</text>
</a>
</g>
</g>
<!-- Node3&#45;&gt;Node2 -->
<g id="edge2" class="edge">
<title>Node3&#45;&gt;Node2</title>
<path fill="none" stroke="midnightblue" d="M60.07,-114.41C63.13,-101.99 67.02,-86.22 69.38,-76.63"/>
<polygon fill="midnightblue" stroke="midnightblue" points="56.65,-113.69 57.66,-124.23 63.45,-115.36 56.65,-113.69"/>
</g>
<!-- Node4 -->
<g id="node4" class="node">
<title>Node4</title>
<g id="a_node4"><a xlink:title=" ">
<polygon fill="white" stroke="#bfbfbf" points="117,-124.5 117,-143.5 182,-143.5 182,-124.5 117,-124.5"/>
<text text-anchor="middle" x="149.5" y="-131.5" font-family="Helvetica,sans-Serif" font-size="10.00">std::string</text>
</a>
</g>
</g>
<!-- Node4&#45;&gt;Node2 -->
<g id="edge3" class="edge">
<title>Node4&#45;&gt;Node2</title>
<path fill="none" stroke="#9a32cd" stroke-dasharray="5,2" d="M131.16,-117.71C115.79,-104.91 94.41,-87.09 81.85,-76.63"/>
<polygon fill="#9a32cd" stroke="#9a32cd" points="129.06,-120.52 138.98,-124.23 133.54,-115.14 129.06,-120.52"/>
<text text-anchor="middle" x="146" y="-98" font-family="Helvetica,sans-Serif" font-size="10.00"> m_message</text>
</g>
<!-- Node5 -->
<g id="node5" class="node">
<title>Node5</title>
<g id="a_node5"><a xlink:title=" ">
<polygon fill="white" stroke="#bfbfbf" points="97.5,-181.5 97.5,-211.5 201.5,-211.5 201.5,-181.5 97.5,-181.5"/>
<text text-anchor="start" x="105.5" y="-199.5" font-family="Helvetica,sans-Serif" font-size="10.00">std::basic_string&lt;</text>
<text text-anchor="middle" x="149.5" y="-188.5" font-family="Helvetica,sans-Serif" font-size="10.00"> Char &gt;</text>
</a>
</g>
</g>
<!-- Node5&#45;&gt;Node4 -->
<g id="edge4" class="edge">
<title>Node5&#45;&gt;Node4</title>
<path fill="none" stroke="midnightblue" d="M149.5,-171.35C149.5,-161.51 149.5,-150.78 149.5,-143.54"/>
<polygon fill="midnightblue" stroke="midnightblue" points="146,-171.47 149.5,-181.47 153,-171.47 146,-171.47"/>
</g>
</g>
</svg>
