<?xml version="1.0" encoding="UTF-8" standalone="no"?>
<!DOCTYPE svg PUBLIC "-//W3C//DTD SVG 1.1//EN"
 "http://www.w3.org/Graphics/SVG/1.1/DTD/svg11.dtd">
<!-- Generated by graphviz version 2.43.0 (0)
 -->
<!-- Title: brezel::utils::RuntimeError Pages: 1 -->
<svg width="210pt" height="220pt"
 viewBox="0.00 0.00 210.00 220.00" xmlns="http://www.w3.org/2000/svg" xmlns:xlink="http://www.w3.org/1999/xlink">
<g id="graph0" class="graph" transform="scale(1 1) rotate(0) translate(4 216)">
<title>brezel::utils::RuntimeError</title>
<polygon fill="white" stroke="transparent" points="-4,4 -4,-216 206,-216 206,4 -4,4"/>
<!-- Node1 -->
<g id="node1" class="node">
<title>Node1</title>
<g id="a_node1"><a xlink:title="Runtime error.">
<polygon fill="#bfbfbf" stroke="black" points="0,-0.5 0,-19.5 144,-19.5 144,-0.5 0,-0.5"/>
<text text-anchor="middle" x="72" y="-7.5" font-family="Helvetica,sans-Serif" font-size="10.00">brezel::utils::RuntimeError</text>
</a>
</g>
</g>
<!-- Node2 -->
<g id="node2" class="node">
<title>Node2</title>
<g id="a_node2"><a xlink:href="classbrezel_1_1utils_1_1_error.html" target="_top" xlink:title="Bae class for all Brezel errors.">
<polygon fill="white" stroke="black" points="20.5,-57.5 20.5,-76.5 123.5,-76.5 123.5,-57.5 20.5,-57.5"/>
<text text-anchor="middle" x="72" y="-64.5" font-family="Helvetica,sans-Serif" font-size="10.00">brezel::utils::Error</text>
</a>
</g>
</g>
<!-- Node2&#45;&gt;Node1 -->
<g id="edge1" class="edge">
<title>Node2&#45;&gt;Node1</title>
<path fill="none" stroke="midnightblue" d="M72,-47.12C72,-37.82 72,-27.06 72,-19.71"/>
<polygon fill="midnightblue" stroke="midnightblue" points="68.5,-47.41 72,-57.41 75.5,-47.41 68.5,-47.41"/>
</g>
<!-- Node3 -->
<g id="node3" class="node">
<title>Node3</title>
<g id="a_node3"><a xlink:title=" ">
<polygon fill="white" stroke="#bfbfbf" points="13,-124.5 13,-143.5 99,-143.5 99,-124.5 13,-124.5"/>
<text text-anchor="middle" x="56" y="-131.5" font-family="Helvetica,sans-Serif" font-size="10.00">std::exception</text>
</a>
</g>
</g>
<!-- Node3&#45;&gt;Node2 -->
<g id="edge2" class="edge">
<title>Node3&#45;&gt;Node2</title>
<path fill="none" stroke="midnightblue" d="M60.57,-114.41C63.63,-101.99 67.52,-86.22 69.88,-76.63"/>
<polygon fill="midnightblue" stroke="midnightblue" points="57.15,-113.69 58.16,-124.23 63.95,-115.36 57.15,-113.69"/>
</g>
<!-- Node4 -->
<g id="node4" class="node">
<title>Node4</title>
<g id="a_node4"><a xlink:title=" ">
<polygon fill="white" stroke="#bfbfbf" points="117.5,-124.5 117.5,-143.5 182.5,-143.5 182.5,-124.5 117.5,-124.5"/>
<text text-anchor="middle" x="150" y="-131.5" font-family="Helvetica,sans-Serif" font-size="10.00">std::string</text>
</a>
</g>
</g>
<!-- Node4&#45;&gt;Node2 -->
<g id="edge3" class="edge">
<title>Node4&#45;&gt;Node2</title>
<path fill="none" stroke="#9a32cd" stroke-dasharray="5,2" d="M131.66,-117.71C116.29,-104.91 94.91,-87.09 82.35,-76.63"/>
<polygon fill="#9a32cd" stroke="#9a32cd" points="129.56,-120.52 139.48,-124.23 134.04,-115.14 129.56,-120.52"/>
<text text-anchor="middle" x="146.5" y="-98" font-family="Helvetica,sans-Serif" font-size="10.00"> m_message</text>
</g>
<!-- Node5 -->
<g id="node5" class="node">
<title>Node5</title>
<g id="a_node5"><a xlink:title=" ">
<polygon fill="white" stroke="#bfbfbf" points="98,-181.5 98,-211.5 202,-211.5 202,-181.5 98,-181.5"/>
<text text-anchor="start" x="106" y="-199.5" font-family="Helvetica,sans-Serif" font-size="10.00">std::basic_string&lt;</text>
<text text-anchor="middle" x="150" y="-188.5" font-family="Helvetica,sans-Serif" font-size="10.00"> Char &gt;</text>
</a>
</g>
</g>
<!-- Node5&#45;&gt;Node4 -->
<g id="edge4" class="edge">
<title>Node5&#45;&gt;Node4</title>
<path fill="none" stroke="midnightblue" d="M150,-171.35C150,-161.51 150,-150.78 150,-143.54"/>
<polygon fill="midnightblue" stroke="midnightblue" points="146.5,-171.47 150,-181.47 153.5,-171.47 146.5,-171.47"/>
</g>
</g>
</svg>
