<?xml version="1.0" encoding="UTF-8" standalone="no"?>
<!DOCTYPE svg PUBLIC "-//W3C//DTD SVG 1.1//EN"
 "http://www.w3.org/Graphics/SVG/1.1/DTD/svg11.dtd">
<!-- Generated by graphviz version 2.43.0 (0)
 -->
<!-- Title: brezel::utils::InvalidArgumentError Pages: 1 -->
<svg width="219pt" height="231pt"
 viewBox="0.00 0.00 218.50 231.00" xmlns="http://www.w3.org/2000/svg" xmlns:xlink="http://www.w3.org/1999/xlink">
<g id="graph0" class="graph" transform="scale(1 1) rotate(0) translate(4 227)">
<title>brezel::utils::InvalidArgumentError</title>
<polygon fill="white" stroke="transparent" points="-4,4 -4,-227 214.5,-227 214.5,4 -4,4"/>
<!-- Node1 -->
<g id="node1" class="node">
<title>Node1</title>
<g id="a_node1"><a xlink:title="Invalid argument error.">
<polygon fill="#bfbfbf" stroke="black" points="0,-0.5 0,-30.5 161,-30.5 161,-0.5 0,-0.5"/>
<text text-anchor="start" x="8" y="-18.5" font-family="Helvetica,sans-Serif" font-size="10.00">brezel::utils::InvalidArgument</text>
<text text-anchor="middle" x="80.5" y="-7.5" font-family="Helvetica,sans-Serif" font-size="10.00">Error</text>
</a>
</g>
</g>
<!-- Node2 -->
<g id="node2" class="node">
<title>Node2</title>
<g id="a_node2"><a xlink:href="classbrezel_1_1utils_1_1_error.html" target="_top" xlink:title="Bae class for all Brezel errors.">
<polygon fill="white" stroke="black" points="29,-68.5 29,-87.5 132,-87.5 132,-68.5 29,-68.5"/>
<text text-anchor="middle" x="80.5" y="-75.5" font-family="Helvetica,sans-Serif" font-size="10.00">brezel::utils::Error</text>
</a>
</g>
</g>
<!-- Node2&#45;&gt;Node1 -->
<g id="edge1" class="edge">
<title>Node2&#45;&gt;Node1</title>
<path fill="none" stroke="midnightblue" d="M80.5,-58.22C80.5,-49.36 80.5,-38.96 80.5,-30.76"/>
<polygon fill="midnightblue" stroke="midnightblue" points="77,-58.33 80.5,-68.33 84,-58.33 77,-58.33"/>
</g>
<!-- Node3 -->
<g id="node3" class="node">
<title>Node3</title>
<g id="a_node3"><a xlink:title=" ">
<polygon fill="white" stroke="#bfbfbf" points="21.5,-135.5 21.5,-154.5 107.5,-154.5 107.5,-135.5 21.5,-135.5"/>
<text text-anchor="middle" x="64.5" y="-142.5" font-family="Helvetica,sans-Serif" font-size="10.00">std::exception</text>
</a>
</g>
</g>
<!-- Node3&#45;&gt;Node2 -->
<g id="edge2" class="edge">
<title>Node3&#45;&gt;Node2</title>
<path fill="none" stroke="midnightblue" d="M69.07,-125.41C72.13,-112.99 76.02,-97.22 78.38,-87.63"/>
<polygon fill="midnightblue" stroke="midnightblue" points="65.65,-124.69 66.66,-135.23 72.45,-126.36 65.65,-124.69"/>
</g>
<!-- Node4 -->
<g id="node4" class="node">
<title>Node4</title>
<g id="a_node4"><a xlink:title=" ">
<polygon fill="white" stroke="#bfbfbf" points="126,-135.5 126,-154.5 191,-154.5 191,-135.5 126,-135.5"/>
<text text-anchor="middle" x="158.5" y="-142.5" font-family="Helvetica,sans-Serif" font-size="10.00">std::string</text>
</a>
</g>
</g>
<!-- Node4&#45;&gt;Node2 -->
<g id="edge3" class="edge">
<title>Node4&#45;&gt;Node2</title>
<path fill="none" stroke="#9a32cd" stroke-dasharray="5,2" d="M140.16,-128.71C124.79,-115.91 103.41,-98.09 90.85,-87.63"/>
<polygon fill="#9a32cd" stroke="#9a32cd" points="138.06,-131.52 147.98,-135.23 142.54,-126.14 138.06,-131.52"/>
<text text-anchor="middle" x="155" y="-109" font-family="Helvetica,sans-Serif" font-size="10.00"> m_message</text>
</g>
<!-- Node5 -->
<g id="node5" class="node">
<title>Node5</title>
<g id="a_node5"><a xlink:title=" ">
<polygon fill="white" stroke="#bfbfbf" points="106.5,-192.5 106.5,-222.5 210.5,-222.5 210.5,-192.5 106.5,-192.5"/>
<text text-anchor="start" x="114.5" y="-210.5" font-family="Helvetica,sans-Serif" font-size="10.00">std::basic_string&lt;</text>
<text text-anchor="middle" x="158.5" y="-199.5" font-family="Helvetica,sans-Serif" font-size="10.00"> Char &gt;</text>
</a>
</g>
</g>
<!-- Node5&#45;&gt;Node4 -->
<g id="edge4" class="edge">
<title>Node5&#45;&gt;Node4</title>
<path fill="none" stroke="midnightblue" d="M158.5,-182.35C158.5,-172.51 158.5,-161.78 158.5,-154.54"/>
<polygon fill="midnightblue" stroke="midnightblue" points="155,-182.47 158.5,-192.47 162,-182.47 155,-182.47"/>
</g>
</g>
</svg>
