<?xml version="1.0" encoding="UTF-8" standalone="no"?>
<!DOCTYPE svg PUBLIC "-//W3C//DTD SVG 1.1//EN"
 "http://www.w3.org/Graphics/SVG/1.1/DTD/svg11.dtd">
<!-- Generated by graphviz version 2.43.0 (0)
 -->
<!-- Title: include/brezel Pages: 1 -->
<svg width="254pt" height="111pt"
 viewBox="0.00 0.00 254.00 111.00" xmlns="http://www.w3.org/2000/svg" xmlns:xlink="http://www.w3.org/1999/xlink">
<g id="graph0" class="graph" transform="scale(1 1) rotate(0) translate(4 107)">
<title>include/brezel</title>
<polygon fill="white" stroke="transparent" points="-4,4 -4,-107 250,-107 250,4 -4,4"/>
<g id="clust1" class="cluster">
<title>clusterdir_d44c64559bbebec7f509842c48db8b23</title>
<g id="a_clust1"><a xlink:href="dir_d44c64559bbebec7f509842c48db8b23.html" target="_top" xlink:title="include">
<polygon fill="#ddddee" stroke="black" points="8,-8 8,-95 238,-95 238,-8 8,-8"/>
<text text-anchor="middle" x="123" y="-83" font-family="Helvetica,sans-Serif" font-size="10.00">include</text>
</a>
</g>
</g>
<g id="clust2" class="cluster">
<title>clusterdir_4e1c0b76764f9559af89017f0acac692</title>
<g id="a_clust2"><a xlink:href="dir_4e1c0b76764f9559af89017f0acac692.html" target="_top">
<polygon fill="#eeeeff" stroke="black" points="16,-16 16,-68 230,-68 230,-16 16,-16"/>
</a>
</g>
</g>
<!-- dir_4e1c0b76764f9559af89017f0acac692 -->
<g id="node1" class="node">
<title>dir_4e1c0b76764f9559af89017f0acac692</title>
<text text-anchor="middle" x="195" y="-39.5" font-family="Helvetica,sans-Serif" font-size="10.00">brezel</text>
</g>
<!-- dir_7f35a680cbce039aaa5feca76168564c -->
<g id="node2" class="node">
<title>dir_7f35a680cbce039aaa5feca76168564c</title>
<g id="a_node2"><a xlink:href="dir_7f35a680cbce039aaa5feca76168564c.html" target="_top" xlink:title="core">
<polygon fill="white" stroke="black" points="150,-60 96,-60 96,-24 150,-24 150,-60"/>
<text text-anchor="middle" x="123" y="-39.5" font-family="Helvetica,sans-Serif" font-size="10.00">core</text>
</a>
</g>
</g>
<!-- dir_26ad98abc0169e9f032fc448de94422e -->
<g id="node3" class="node">
<title>dir_26ad98abc0169e9f032fc448de94422e</title>
<g id="a_node3"><a xlink:href="dir_26ad98abc0169e9f032fc448de94422e.html" target="_top" xlink:title="utils">
<polygon fill="white" stroke="black" points="78,-60 24,-60 24,-24 78,-24 78,-60"/>
<text text-anchor="middle" x="51" y="-39.5" font-family="Helvetica,sans-Serif" font-size="10.00">utils</text>
</a>
</g>
</g>
</g>
</svg>
