<?xml version="1.0" encoding="UTF-8" standalone="no"?>
<!DOCTYPE svg PUBLIC "-//W3C//DTD SVG 1.1//EN"
 "http://www.w3.org/Graphics/SVG/1.1/DTD/svg11.dtd">
<!-- Generated by graphviz version 2.43.0 (0)
 -->
<!-- Title: Graphical Class Hierarchy Pages: 1 -->
<svg width="300pt" height="88pt"
 viewBox="0.00 0.00 300.00 88.00" xmlns="http://www.w3.org/2000/svg" xmlns:xlink="http://www.w3.org/1999/xlink">
<g id="graph0" class="graph" transform="scale(1 1) rotate(0) translate(4 84)">
<title>Graphical Class Hierarchy</title>
<polygon fill="white" stroke="transparent" points="-4,4 -4,-84 296,-84 296,4 -4,4"/>
<!-- Node12 -->
<g id="node1" class="node">
<title>Node12</title>
<g id="a_node1"><a xlink:title=" ">
<polygon fill="white" stroke="#bfbfbf" points="0,-30 0,-49 89,-49 89,-30 0,-30"/>
<text text-anchor="middle" x="44.5" y="-37" font-family="Helvetica,sans-Serif" font-size="10.00">std::false_type</text>
</a>
</g>
</g>
<!-- Node0 -->
<g id="node2" class="node">
<title>Node0</title>
<g id="a_node2"><a xlink:href="structbrezel_1_1utils_1_1_expected_1_1is__expected.html" target="_top" xlink:title=" ">
<polygon fill="white" stroke="black" points="132.5,-49.5 132.5,-79.5 284.5,-79.5 284.5,-49.5 132.5,-49.5"/>
<text text-anchor="start" x="140.5" y="-67.5" font-family="Helvetica,sans-Serif" font-size="10.00">brezel::utils::Expected</text>
<text text-anchor="middle" x="208.5" y="-56.5" font-family="Helvetica,sans-Serif" font-size="10.00">&lt; T, E &gt;::is_expected&lt; U &gt;</text>
</a>
</g>
</g>
<!-- Node12&#45;&gt;Node0 -->
<g id="edge1" class="edge">
<title>Node12&#45;&gt;Node0</title>
<path fill="none" stroke="midnightblue" d="M99.28,-47.8C109.9,-49.44 121.23,-51.19 132.41,-52.91"/>
<polygon fill="midnightblue" stroke="midnightblue" points="99.76,-44.33 89.34,-46.27 98.69,-51.25 99.76,-44.33"/>
</g>
<!-- Node14 -->
<g id="node3" class="node">
<title>Node14</title>
<g id="a_node3"><a xlink:href="structbrezel_1_1utils_1_1_expected_3_01void_00_01_e_01_4_1_1is__expected.html" target="_top" xlink:title=" ">
<polygon fill="white" stroke="black" points="125,-0.5 125,-30.5 292,-30.5 292,-0.5 125,-0.5"/>
<text text-anchor="start" x="133" y="-18.5" font-family="Helvetica,sans-Serif" font-size="10.00">brezel::utils::Expected</text>
<text text-anchor="middle" x="208.5" y="-7.5" font-family="Helvetica,sans-Serif" font-size="10.00">&lt; void, E &gt;::is_expected&lt; U &gt;</text>
</a>
</g>
</g>
<!-- Node12&#45;&gt;Node14 -->
<g id="edge2" class="edge">
<title>Node12&#45;&gt;Node14</title>
<path fill="none" stroke="midnightblue" d="M99.47,-31.5C107.67,-30.29 116.28,-29.01 124.92,-27.73"/>
<polygon fill="midnightblue" stroke="midnightblue" points="98.72,-28.08 89.34,-33.01 99.74,-35 98.72,-28.08"/>
</g>
</g>
</svg>
