<?xml version="1.0" encoding="UTF-8" standalone="no"?>
<!DOCTYPE svg PUBLIC "-//W3C//DTD SVG 1.1//EN"
 "http://www.w3.org/Graphics/SVG/1.1/DTD/svg11.dtd">
<!-- Generated by graphviz version 2.43.0 (0)
 -->
<!-- Title: Graphical Class Hierarchy Pages: 1 -->
<svg width="482pt" height="242pt"
 viewBox="0.00 0.00 482.00 242.00" xmlns="http://www.w3.org/2000/svg" xmlns:xlink="http://www.w3.org/1999/xlink">
<g id="graph0" class="graph" transform="scale(1 1) rotate(0) translate(4 238)">
<title>Graphical Class Hierarchy</title>
<polygon fill="white" stroke="transparent" points="-4,4 -4,-238 478,-238 478,4 -4,4"/>
<!-- Node1 -->
<g id="node1" class="node">
<title>Node1</title>
<g id="a_node1"><a xlink:href="classbrezel_1_1utils_1_1_device_error.html" target="_top" xlink:title="Device error.">
<polygon fill="white" stroke="black" points="0,-104.5 0,-123.5 137,-123.5 137,-104.5 0,-104.5"/>
<text text-anchor="middle" x="68.5" y="-111.5" font-family="Helvetica,sans-Serif" font-size="10.00">brezel::utils::DeviceError</text>
</a>
</g>
</g>
<!-- Node0 -->
<g id="node2" class="node">
<title>Node0</title>
<g id="a_node2"><a xlink:href="classbrezel_1_1utils_1_1_error.html" target="_top" xlink:title="Bae class for all Brezel errors.">
<polygon fill="white" stroke="black" points="173,-104.5 173,-123.5 276,-123.5 276,-104.5 173,-104.5"/>
<text text-anchor="middle" x="224.5" y="-111.5" font-family="Helvetica,sans-Serif" font-size="10.00">brezel::utils::Error</text>
</a>
</g>
</g>
<!-- Node1&#45;&gt;Node0 -->
<g id="edge1" class="edge">
<title>Node1&#45;&gt;Node0</title>
<path fill="none" stroke="midnightblue" d="M147.19,-107.25C155.84,-107.26 164.48,-107.38 172.68,-107.61"/>
<polygon fill="midnightblue" stroke="midnightblue" points="147.03,-103.75 137.05,-107.3 147.06,-110.75 147.03,-103.75"/>
</g>
<!-- Node0&#45;&gt;Node1 -->
<g id="edge2" class="edge">
<title>Node0&#45;&gt;Node1</title>
<path fill="none" stroke="midnightblue" d="M162.6,-120.62C154.21,-120.76 145.55,-120.79 137.05,-120.7"/>
<polygon fill="midnightblue" stroke="midnightblue" points="162.76,-124.11 172.68,-120.39 162.6,-117.12 162.76,-124.11"/>
</g>
<!-- Node2 -->
<g id="node3" class="node">
<title>Node2</title>
<g id="a_node3"><a xlink:href="classbrezel_1_1utils_1_1_index_error.html" target="_top" xlink:title="Index error (for out&#45;of&#45;bounds access)">
<polygon fill="white" stroke="black" points="328,-214.5 328,-233.5 458,-233.5 458,-214.5 328,-214.5"/>
<text text-anchor="middle" x="393" y="-221.5" font-family="Helvetica,sans-Serif" font-size="10.00">brezel::utils::IndexError</text>
</a>
</g>
</g>
<!-- Node0&#45;&gt;Node2 -->
<g id="edge3" class="edge">
<title>Node0&#45;&gt;Node2</title>
<path fill="none" stroke="midnightblue" d="M237.62,-132.03C252.6,-152.86 280.07,-186.63 312,-205 318.81,-208.91 326.38,-212.02 334.08,-214.49"/>
<polygon fill="midnightblue" stroke="midnightblue" points="240.41,-129.91 231.81,-123.72 234.67,-133.92 240.41,-129.91"/>
</g>
<!-- Node3 -->
<g id="node4" class="node">
<title>Node3</title>
<g id="a_node4"><a xlink:href="classbrezel_1_1utils_1_1_invalid_argument_error.html" target="_top" xlink:title="Invalid argument error.">
<polygon fill="white" stroke="black" points="312.5,-165 312.5,-195 473.5,-195 473.5,-165 312.5,-165"/>
<text text-anchor="start" x="320.5" y="-183" font-family="Helvetica,sans-Serif" font-size="10.00">brezel::utils::InvalidArgument</text>
<text text-anchor="middle" x="393" y="-172" font-family="Helvetica,sans-Serif" font-size="10.00">Error</text>
</a>
</g>
</g>
<!-- Node0&#45;&gt;Node3 -->
<g id="edge4" class="edge">
<title>Node0&#45;&gt;Node3</title>
<path fill="none" stroke="midnightblue" d="M252.96,-128.22C269.75,-136.62 291.82,-147.11 312,-155 320.94,-158.5 330.59,-161.85 339.99,-164.91"/>
<polygon fill="midnightblue" stroke="midnightblue" points="254.24,-124.95 243.73,-123.56 251.08,-131.19 254.24,-124.95"/>
</g>
<!-- Node4 -->
<g id="node5" class="node">
<title>Node4</title>
<g id="a_node5"><a xlink:href="classbrezel_1_1utils_1_1_memory_error.html" target="_top" xlink:title="Memory error.">
<polygon fill="white" stroke="black" points="321.5,-126.5 321.5,-145.5 464.5,-145.5 464.5,-126.5 321.5,-126.5"/>
<text text-anchor="middle" x="393" y="-133.5" font-family="Helvetica,sans-Serif" font-size="10.00">brezel::utils::MemoryError</text>
</a>
</g>
</g>
<!-- Node0&#45;&gt;Node4 -->
<g id="edge5" class="edge">
<title>Node0&#45;&gt;Node4</title>
<path fill="none" stroke="midnightblue" d="M286.53,-122.06C297.81,-123.55 309.68,-125.12 321.22,-126.65"/>
<polygon fill="midnightblue" stroke="midnightblue" points="286.73,-118.56 276.36,-120.72 285.82,-125.5 286.73,-118.56"/>
</g>
<!-- Node5 -->
<g id="node6" class="node">
<title>Node5</title>
<g id="a_node6"><a xlink:href="classbrezel_1_1utils_1_1_not_implemented_error.html" target="_top" xlink:title="Not implemented error.">
<polygon fill="white" stroke="black" points="312,-77 312,-107 474,-107 474,-77 312,-77"/>
<text text-anchor="start" x="320" y="-95" font-family="Helvetica,sans-Serif" font-size="10.00">brezel::utils::NotImplemented</text>
<text text-anchor="middle" x="393" y="-84" font-family="Helvetica,sans-Serif" font-size="10.00">Error</text>
</a>
</g>
</g>
<!-- Node0&#45;&gt;Node5 -->
<g id="edge6" class="edge">
<title>Node0&#45;&gt;Node5</title>
<path fill="none" stroke="midnightblue" d="M286.54,-105.93C294.73,-104.85 303.24,-103.73 311.7,-102.61"/>
<polygon fill="midnightblue" stroke="midnightblue" points="285.82,-102.5 276.36,-107.28 286.73,-109.44 285.82,-102.5"/>
</g>
<!-- Node6 -->
<g id="node7" class="node">
<title>Node6</title>
<g id="a_node7"><a xlink:href="classbrezel_1_1utils_1_1_runtime_error.html" target="_top" xlink:title="Runtime error.">
<polygon fill="white" stroke="black" points="321,-38.5 321,-57.5 465,-57.5 465,-38.5 321,-38.5"/>
<text text-anchor="middle" x="393" y="-45.5" font-family="Helvetica,sans-Serif" font-size="10.00">brezel::utils::RuntimeError</text>
</a>
</g>
</g>
<!-- Node0&#45;&gt;Node6 -->
<g id="edge7" class="edge">
<title>Node0&#45;&gt;Node6</title>
<path fill="none" stroke="midnightblue" d="M249.59,-99.14C266.54,-89.2 290.03,-76.44 312,-68 322.69,-63.89 334.51,-60.4 345.71,-57.54"/>
<polygon fill="midnightblue" stroke="midnightblue" points="247.69,-96.19 240.9,-104.32 251.28,-102.21 247.69,-96.19"/>
</g>
<!-- Node7 -->
<g id="node8" class="node">
<title>Node7</title>
<g id="a_node8"><a xlink:href="classbrezel_1_1utils_1_1_shape_error.html" target="_top" xlink:title="Shape error.">
<polygon fill="white" stroke="black" points="326.5,-0.5 326.5,-19.5 459.5,-19.5 459.5,-0.5 326.5,-0.5"/>
<text text-anchor="middle" x="393" y="-7.5" font-family="Helvetica,sans-Serif" font-size="10.00">brezel::utils::ShapeError</text>
</a>
</g>
</g>
<!-- Node0&#45;&gt;Node7 -->
<g id="edge8" class="edge">
<title>Node0&#45;&gt;Node7</title>
<path fill="none" stroke="midnightblue" d="M238.58,-96.31C253.96,-76.81 281.32,-45.96 312,-29 319,-25.13 326.76,-22.05 334.62,-19.59"/>
<polygon fill="midnightblue" stroke="midnightblue" points="235.69,-94.32 232.38,-104.39 241.25,-98.58 235.69,-94.32"/>
</g>
</g>
</svg>
