<?xml version="1.0" encoding="UTF-8" standalone="no"?>
<!DOCTYPE svg PUBLIC "-//W3C//DTD SVG 1.1//EN"
 "http://www.w3.org/Graphics/SVG/1.1/DTD/svg11.dtd">
<!-- Generated by graphviz version 2.43.0 (0)
 -->
<!-- Title: Graphical Class Hierarchy Pages: 1 -->
<svg width="265pt" height="110pt"
 viewBox="0.00 0.00 265.00 110.00" xmlns="http://www.w3.org/2000/svg" xmlns:xlink="http://www.w3.org/1999/xlink">
<g id="graph0" class="graph" transform="scale(1 1) rotate(0) translate(4 106)">
<title>Graphical Class Hierarchy</title>
<polygon fill="white" stroke="transparent" points="-4,4 -4,-106 261,-106 261,4 -4,4"/>
<!-- Node16 -->
<g id="node1" class="node">
<title>Node16</title>
<g id="a_node1"><a xlink:title=" ">
<polygon fill="white" stroke="#bfbfbf" points="0,-41.5 0,-60.5 84,-60.5 84,-41.5 0,-41.5"/>
<text text-anchor="middle" x="42" y="-48.5" font-family="Helvetica,sans-Serif" font-size="10.00">std::true_type</text>
</a>
</g>
</g>
<!-- Node0 -->
<g id="node2" class="node">
<title>Node0</title>
<g id="a_node2"><a xlink:href="structbrezel_1_1utils_1_1_expected_1_1is__expected_3_01_expected_3_01_v_00_01_g_01_4_01_4.html" target="_top" xlink:title=" ">
<polygon fill="white" stroke="black" points="125,-60.5 125,-101.5 252,-101.5 252,-60.5 125,-60.5"/>
<text text-anchor="start" x="133" y="-89.5" font-family="Helvetica,sans-Serif" font-size="10.00">brezel::utils::Expected</text>
<text text-anchor="start" x="133" y="-78.5" font-family="Helvetica,sans-Serif" font-size="10.00">&lt; T, E &gt;::is_expected</text>
<text text-anchor="middle" x="188.5" y="-67.5" font-family="Helvetica,sans-Serif" font-size="10.00">&lt; Expected&lt; V, G &gt; &gt;</text>
</a>
</g>
</g>
<!-- Node16&#45;&gt;Node0 -->
<g id="edge1" class="edge">
<title>Node16&#45;&gt;Node0</title>
<path fill="none" stroke="midnightblue" d="M94.11,-61.61C104.03,-63.67 114.53,-65.85 124.78,-67.98"/>
<polygon fill="midnightblue" stroke="midnightblue" points="94.52,-58.12 84.02,-59.52 93.1,-64.98 94.52,-58.12"/>
</g>
<!-- Node18 -->
<g id="node3" class="node">
<title>Node18</title>
<g id="a_node3"><a xlink:href="structbrezel_1_1utils_1_1_expected_3_01void_00_01_e_01_4_1_1is__expected_3_01_expected_3_01_v_00_01_g_01_4_01_4.html" target="_top" xlink:title=" ">
<polygon fill="white" stroke="black" points="120,-0.5 120,-41.5 257,-41.5 257,-0.5 120,-0.5"/>
<text text-anchor="start" x="128" y="-29.5" font-family="Helvetica,sans-Serif" font-size="10.00">brezel::utils::Expected</text>
<text text-anchor="start" x="128" y="-18.5" font-family="Helvetica,sans-Serif" font-size="10.00">&lt; void, E &gt;::is_expected</text>
<text text-anchor="middle" x="188.5" y="-7.5" font-family="Helvetica,sans-Serif" font-size="10.00">&lt; Expected&lt; V, G &gt; &gt;</text>
</a>
</g>
</g>
<!-- Node16&#45;&gt;Node18 -->
<g id="edge2" class="edge">
<title>Node16&#45;&gt;Node18</title>
<path fill="none" stroke="midnightblue" d="M93.99,-40.41C102.37,-38.67 111.16,-36.85 119.86,-35.04"/>
<polygon fill="midnightblue" stroke="midnightblue" points="93.1,-37.02 84.02,-42.48 94.52,-43.88 93.1,-37.02"/>
</g>
</g>
</svg>
